<svg xmlns="http://www.w3.org/2000/svg" width="512" height="512" viewBox="0 0 512 512" role="img" aria-labelledby="title desc">
  <title id="title">가상의 IT 콘텐츠 크리에이터 노기찬</title>
  <desc id="desc">마이크와 스토리보드를 든 독창적인 플랫 벡터 캐릭터</desc>
  <defs>
    <linearGradient id="bg" x1="0" y1="1" x2="1" y2="0">
      <stop offset="0" stop-color="#512a78"/>
      <stop offset="1" stop-color="#b7448e"/>
    </linearGradient>
  </defs>
  <rect width="512" height="512" rx="96" fill="url(#bg)"/>
  <path d="M76 105h112v74H76z" fill="#ffe875"/>
  <path d="M98 126h68M98 148h49" stroke="#6e3879" stroke-width="9" stroke-linecap="round"/>
  <path d="M408 75l9 27 28 1-22 17 8 28-23-16-23 16 8-28-22-17 28-1z" fill="#fff09c"/>
  <path d="M111 470c12-119 65-181 145-181s133 62 145 181" fill="#f7e9ff"/>
  <path d="M166 317l90 70 90-70 34 153H132z" fill="#30234f"/>
  <circle cx="255" cy="211" r="90" fill="#d49a72"/>
  <path d="M169 205c5-83 47-126 105-121 59 5 91 52 72 130-28-39-60-61-96-64-31 21-58 39-81 55z" fill="#22212b"/>
  <path d="M184 149c38-45 102-64 153-22-27-53-101-67-153 22z" fill="#38343e"/>
  <circle cx="220" cy="216" r="7" fill="#29242b"/>
  <circle cx="290" cy="216" r="7" fill="#29242b"/>
  <path d="M229 255c18 14 37 14 55 0" fill="none" stroke="#874e45" stroke-width="7" stroke-linecap="round"/>
  <rect x="348" y="270" width="63" height="151" rx="32" fill="#f6cf5b" transform="rotate(-13 348 270)"/>
  <rect x="356" y="285" width="47" height="68" rx="23" fill="#2d2751" transform="rotate(-13 356 285)"/>
  <path d="M393 405l30 55" stroke="#f6cf5b" stroke-width="18" stroke-linecap="round"/>
  <circle cx="354" cy="384" r="22" fill="#d49a72"/>
</svg>
