<svg xmlns="http://www.w3.org/2000/svg" width="512" height="512" viewBox="0 0 512 512" role="img" aria-labelledby="title desc">
  <title id="title">가상의 오픈소스 메인테이너 임도현</title>
  <desc id="desc">노트북과 브랜치 그래프를 살피는 독창적인 플랫 벡터 캐릭터</desc>
  <defs>
    <linearGradient id="bg" x1="0" y1="1" x2="1" y2="0">
      <stop offset="0" stop-color="#0d5850"/>
      <stop offset="1" stop-color="#22a77f"/>
    </linearGradient>
  </defs>
  <rect width="512" height="512" rx="96" fill="url(#bg)"/>
  <path d="M76 115h86v50h69v-27h64v69h73v-42h70" fill="none" stroke="#9df3cf" stroke-width="12" stroke-linecap="round" stroke-linejoin="round" opacity=".85"/>
  <circle cx="76" cy="115" r="17" fill="#e8ff80"/>
  <circle cx="231" cy="138" r="17" fill="#e8ff80"/>
  <circle cx="368" cy="207" r="17" fill="#e8ff80"/>
  <circle cx="438" cy="165" r="17" fill="#e8ff80"/>
  <path d="M117 470c14-117 67-177 139-177s125 60 139 177" fill="#103c47"/>
  <path d="M146 337c26-42 64-64 110-64s84 22 110 64l-35 133H181z" fill="#17323b"/>
  <circle cx="256" cy="218" r="87" fill="#c98764"/>
  <path d="M171 210c-1-79 33-122 91-122 55 0 91 42 84 116-31-9-58-27-80-55-21 31-54 51-95 61z" fill="#1d2830"/>
  <circle cx="222" cy="219" r="7" fill="#152027"/>
  <circle cx="291" cy="219" r="7" fill="#152027"/>
  <path d="M231 256c17 10 34 10 51 0" fill="none" stroke="#854a43" stroke-width="7" stroke-linecap="round"/>
  <rect x="126" y="336" width="260" height="132" rx="16" fill="#dff6ee"/>
  <rect x="144" y="354" width="224" height="92" rx="8" fill="#183d46"/>
  <path d="M210 382l-25 19 25 19M302 382l25 19-25 19M272 370l-31 62" fill="none" stroke="#8df0c8" stroke-width="10" stroke-linecap="round" stroke-linejoin="round"/>
  <path d="M98 468h316" stroke="#0b2c33" stroke-width="22" stroke-linecap="round"/>
</svg>
